<svg xmlns="http://www.w3.org/2000/svg" viewBox="0 0 600 700"><rect width="600" height="700" fill="#111"/><g fill="none" stroke="#eee" stroke-width="7" stroke-linejoin="round"><path d="M300 90l70 45 62 5 48 62-18 72 32 68-47 48-24 86-70 28-53-28-70-86-47-48 32-68-18-72 48-62 62-5z"/><path d="M220 210l45 35-22 52m137-87l-45 35 22 52M255 385l45 32 45-32m-77 88l32-20 32 20"/><path d="M245 175l20 52m-66-12l55 20m121-60l-20 52m66-12l-55 20m-6 181l45 48m-185-48l-45 48"/></g><circle cx="270" cy="300" r="7" fill="#eee"/><circle cx="330" cy="300" r="7" fill="#eee"/></svg>